<svg xmlns="http://www.w3.org/2000/svg" version="1.1" xmlns:xlink="http://www.w3.org/1999/xlink" xmlns:svgjs="http://svgjs.com/svgjs" width="512" height="512" x="0" y="0" viewBox="0 0 24 24" style="enable-background:new 0 0 512 512" xml:space="preserve" class=""><g><path d="M7.5 8C5.57 8 4 9.57 4 11.5S5.57 15 7.5 15s3.5-1.57 3.5-3.5S9.43 8 7.5 8Zm0 6C6.122 14 5 12.878 5 11.5S6.122 9 7.5 9s2.5 1.122 2.5 2.5S8.878 14 7.5 14Zm9 2c-1.93 0-3.5 1.57-3.5 3.5s1.57 3.5 3.5 3.5 3.5-1.57 3.5-3.5-1.57-3.5-3.5-3.5Zm0 6c-1.378 0-2.5-1.122-2.5-2.5s1.122-2.5 2.5-2.5 2.5 1.122 2.5 2.5-1.122 2.5-2.5 2.5Zm-9-22C5.57 0 4 1.57 4 3.5S5.57 7 7.5 7 11 5.43 11 3.5 9.43 0 7.5 0Zm0 1c.094 0 .186.006.277.016L5.016 3.777A2.503 2.503 0 0 1 7.5 1ZM5.382 4.825l3.444-3.444c.32.201.592.473.793.793L6.175 5.618a2.523 2.523 0 0 1-.793-.793ZM7.5 6c-.094 0-.186-.006-.277-.016l2.761-2.761A2.503 2.503 0 0 1 7.5 6Zm9 2C14.57 8 13 9.57 13 11.5s1.57 3.5 3.5 3.5 3.5-1.57 3.5-3.5S18.43 8 16.5 8Zm0 6c-1.378 0-2.5-1.122-2.5-2.5S15.122 9 16.5 9s2.5 1.122 2.5 2.5-1.122 2.5-2.5 2.5Zm0-7C18.43 7 20 5.43 20 3.5S18.43 0 16.5 0 13 1.57 13 3.5 14.57 7 16.5 7Zm0-1c-.094 0-.186-.006-.277-.016l2.761-2.761A2.503 2.503 0 0 1 16.5 6Zm2.118-3.825-3.444 3.444a2.523 2.523 0 0 1-.793-.793l3.444-3.444c.32.201.592.473.793.793ZM16.5 1c.094 0 .186.006.277.016l-2.761 2.761A2.503 2.503 0 0 1 16.5 1Zm-9 15C5.57 16 4 17.57 4 19.5S5.57 23 7.5 23s3.5-1.57 3.5-3.5S9.43 16 7.5 16Zm0 1c.094 0 .186.006.277.016l-2.761 2.761A2.503 2.503 0 0 1 7.5 17Zm-2.118 3.825 3.444-3.444c.32.201.592.473.793.793l-3.444 3.444a2.523 2.523 0 0 1-.793-.793ZM7.5 22c-.094 0-.186-.006-.277-.016l2.761-2.761A2.503 2.503 0 0 1 7.5 22Z" fill="#ff3300" data-original="#000000" class=""></path></g></svg>